<?xml version="1.0" encoding="UTF-8"?>
<svg xmlns="http://www.w3.org/2000/svg"
     xmlns:xlink="http://www.w3.org/1999/xlink"
     xmlns:gadfly="http://www.gadflyjl.org/ns"
     version="1.2"
     width="350mm" height="250mm" viewBox="0 0 350 250"
     stroke="none"
     fill="#000000"
     stroke-width="0.3"
     font-size="3.88"
>
<defs>
  <marker id="arrow" markerWidth="15" markerHeight="7" refX="5" refY="3.5" orient="auto" markerUnits="strokeWidth">
    <path d="M0,0 L15,3.5 L0,7 z" stroke="context-stroke" fill="context-stroke"/>
  </marker>
</defs>
<g stroke="#000000" stroke-opacity="0.000" fill="#FFFFFF" id="img-cae2e095-1">
  <g transform="translate(175,125)">
    <path d="M-175,-125 L175,-125 175,125 -175,125  z" class="primitive"/>
  </g>
</g>
<g class="plotroot xscalable yscalable" id="img-cae2e095-2">
  <g font-size="3.88" font-family="'PT Sans','Helvetica Neue','Helvetica',sans-serif" fill="#564A55" stroke="#000000" stroke-opacity="0.000" id="img-cae2e095-3">
    <g transform="translate(175.74,238.39)">
      <g class="primitive">
        <text text-anchor="middle" dy="0.6em">Year</text>
      </g>
    </g>
  </g>
  <g class="guide xlabels" font-size="2.82" font-family="'PT Sans Caption','Helvetica Neue','Helvetica',sans-serif" fill="#6C606B" id="img-cae2e095-4">
    <g transform="translate(19.96,231.72)">
      <g class="primitive">
        <text text-anchor="middle" dy="0.6em">1940</text>
      </g>
    </g>
    <g transform="translate(97.85,231.72)">
      <g class="primitive">
        <text text-anchor="middle" dy="0.6em">1960</text>
      </g>
    </g>
    <g transform="translate(175.74,231.72)">
      <g class="primitive">
        <text text-anchor="middle" dy="0.6em">1980</text>
      </g>
    </g>
    <g transform="translate(253.63,231.72)">
      <g class="primitive">
        <text text-anchor="middle" dy="0.6em">2000</text>
      </g>
    </g>
    <g transform="translate(331.53,231.72)">
      <g class="primitive">
        <text text-anchor="middle" dy="0.6em">2020</text>
      </g>
    </g>
  </g>
  <g class="guide colorkey" id="img-cae2e095-5">
    <g font-size="2.82" font-family="'PT Sans','Helvetica Neue','Helvetica',sans-serif" fill="#4C404B" id="img-cae2e095-6">
      <g transform="translate(337.84,128.28)">
        <g class="primitive">
          <text dy="0.35em">1980</text>
        </g>
      </g>
      <g transform="translate(337.84,135.1)">
        <g class="primitive">
          <text dy="0.35em">1960</text>
        </g>
      </g>
      <g transform="translate(337.84,121.45)">
        <g class="primitive">
          <text dy="0.35em">2000</text>
        </g>
      </g>
      <g transform="translate(337.84,114.62)">
        <g class="primitive">
          <text dy="0.35em">2020</text>
        </g>
      </g>
      <g transform="translate(337.84,141.93)">
        <g class="primitive">
          <text dy="0.35em">1940</text>
        </g>
      </g>
    </g>
    <g shape-rendering="crispEdges" fill-opacity="1" stroke="#000000" stroke-opacity="0.000" id="img-cae2e095-7">
      <g transform="translate(336.18,141.59)" fill="#004D84">
        <path d="M-0.66,-0.34 L0.66,-0.34 0.66,0.34 -0.66,0.34  z" class="primitive"/>
      </g>
      <g transform="translate(336.18,140.91)" fill="#005B8D">
        <path d="M-0.66,-0.34 L0.66,-0.34 0.66,0.34 -0.66,0.34  z" class="primitive"/>
      </g>
      <g transform="translate(336.18,140.22)" fill="#006995">
        <path d="M-0.66,-0.34 L0.66,-0.34 0.66,0.34 -0.66,0.34  z" class="primitive"/>
      </g>
      <g transform="translate(336.18,139.54)" fill="#00769D">
        <path d="M-0.66,-0.34 L0.66,-0.34 0.66,0.34 -0.66,0.34  z" class="primitive"/>
      </g>
      <g transform="translate(336.18,138.86)" fill="#0083A3">
        <path d="M-0.66,-0.34 L0.66,-0.34 0.66,0.34 -0.66,0.34  z" class="primitive"/>
      </g>
      <g transform="translate(336.18,138.18)" fill="#278FA9">
        <path d="M-0.66,-0.34 L0.66,-0.34 0.66,0.34 -0.66,0.34  z" class="primitive"/>
      </g>
      <g transform="translate(336.18,137.49)" fill="#409BAF">
        <path d="M-0.66,-0.34 L0.66,-0.34 0.66,0.34 -0.66,0.34  z" class="primitive"/>
      </g>
      <g transform="translate(336.18,136.81)" fill="#55A7B5">
        <path d="M-0.66,-0.34 L0.66,-0.34 0.66,0.34 -0.66,0.34  z" class="primitive"/>
      </g>
      <g transform="translate(336.18,136.13)" fill="#69B2BA">
        <path d="M-0.66,-0.34 L0.66,-0.34 0.66,0.34 -0.66,0.34  z" class="primitive"/>
      </g>
      <g transform="translate(336.18,135.44)" fill="#7BBCC0">
        <path d="M-0.66,-0.34 L0.66,-0.34 0.66,0.34 -0.66,0.34  z" class="primitive"/>
      </g>
      <g transform="translate(336.18,134.76)" fill="#8DC6C5">
        <path d="M-0.66,-0.34 L0.66,-0.34 0.66,0.34 -0.66,0.34  z" class="primitive"/>
      </g>
      <g transform="translate(336.18,134.08)" fill="#9ED0CB">
        <path d="M-0.66,-0.34 L0.66,-0.34 0.66,0.34 -0.66,0.34  z" class="primitive"/>
      </g>
      <g transform="translate(336.18,133.4)" fill="#A5CFC7">
        <path d="M-0.66,-0.34 L0.66,-0.34 0.66,0.34 -0.66,0.34  z" class="primitive"/>
      </g>
      <g transform="translate(336.18,132.71)" fill="#ABCEC4">
        <path d="M-0.66,-0.34 L0.66,-0.34 0.66,0.34 -0.66,0.34  z" class="primitive"/>
      </g>
      <g transform="translate(336.18,132.03)" fill="#B1CCC2">
        <path d="M-0.66,-0.34 L0.66,-0.34 0.66,0.34 -0.66,0.34  z" class="primitive"/>
      </g>
      <g transform="translate(336.18,131.35)" fill="#B5CCC1">
        <path d="M-0.66,-0.34 L0.66,-0.34 0.66,0.34 -0.66,0.34  z" class="primitive"/>
      </g>
      <g transform="translate(336.18,130.66)" fill="#B7CBBF">
        <path d="M-0.66,-0.34 L0.66,-0.34 0.66,0.34 -0.66,0.34  z" class="primitive"/>
      </g>
      <g transform="translate(336.18,129.98)" fill="#B9CBBD">
        <path d="M-0.66,-0.34 L0.66,-0.34 0.66,0.34 -0.66,0.34  z" class="primitive"/>
      </g>
      <g transform="translate(336.18,129.3)" fill="#BBCBBB">
        <path d="M-0.66,-0.34 L0.66,-0.34 0.66,0.34 -0.66,0.34  z" class="primitive"/>
      </g>
      <g transform="translate(336.18,128.62)" fill="#BDCABA">
        <path d="M-0.66,-0.34 L0.66,-0.34 0.66,0.34 -0.66,0.34  z" class="primitive"/>
      </g>
      <g transform="translate(336.18,127.93)" fill="#BFCAB8">
        <path d="M-0.66,-0.34 L0.66,-0.34 0.66,0.34 -0.66,0.34  z" class="primitive"/>
      </g>
      <g transform="translate(336.18,127.25)" fill="#C2C9B7">
        <path d="M-0.66,-0.34 L0.66,-0.34 0.66,0.34 -0.66,0.34  z" class="primitive"/>
      </g>
      <g transform="translate(336.18,126.57)" fill="#C4C9B6">
        <path d="M-0.66,-0.34 L0.66,-0.34 0.66,0.34 -0.66,0.34  z" class="primitive"/>
      </g>
      <g transform="translate(336.18,125.89)" fill="#C6C8B5">
        <path d="M-0.66,-0.34 L0.66,-0.34 0.66,0.34 -0.66,0.34  z" class="primitive"/>
      </g>
      <g transform="translate(336.18,125.2)" fill="#C9C7B4">
        <path d="M-0.66,-0.34 L0.66,-0.34 0.66,0.34 -0.66,0.34  z" class="primitive"/>
      </g>
      <g transform="translate(336.18,124.52)" fill="#CCC7B2">
        <path d="M-0.66,-0.34 L0.66,-0.34 0.66,0.34 -0.66,0.34  z" class="primitive"/>
      </g>
      <g transform="translate(336.18,123.84)" fill="#CFC6AE">
        <path d="M-0.66,-0.34 L0.66,-0.34 0.66,0.34 -0.66,0.34  z" class="primitive"/>
      </g>
      <g transform="translate(336.18,123.15)" fill="#D4C5AA">
        <path d="M-0.66,-0.34 L0.66,-0.34 0.66,0.34 -0.66,0.34  z" class="primitive"/>
      </g>
      <g transform="translate(336.18,122.47)" fill="#D8C3A6">
        <path d="M-0.66,-0.34 L0.66,-0.34 0.66,0.34 -0.66,0.34  z" class="primitive"/>
      </g>
      <g transform="translate(336.18,121.79)" fill="#D3B79A">
        <path d="M-0.66,-0.34 L0.66,-0.34 0.66,0.34 -0.66,0.34  z" class="primitive"/>
      </g>
      <g transform="translate(336.18,121.11)" fill="#CDAB8E">
        <path d="M-0.66,-0.34 L0.66,-0.34 0.66,0.34 -0.66,0.34  z" class="primitive"/>
      </g>
      <g transform="translate(336.18,120.42)" fill="#C89E82">
        <path d="M-0.66,-0.34 L0.66,-0.34 0.66,0.34 -0.66,0.34  z" class="primitive"/>
      </g>
      <g transform="translate(336.18,119.74)" fill="#C19177">
        <path d="M-0.66,-0.34 L0.66,-0.34 0.66,0.34 -0.66,0.34  z" class="primitive"/>
      </g>
      <g transform="translate(336.18,119.06)" fill="#BA836C">
        <path d="M-0.66,-0.34 L0.66,-0.34 0.66,0.34 -0.66,0.34  z" class="primitive"/>
      </g>
      <g transform="translate(336.18,118.37)" fill="#B27563">
        <path d="M-0.66,-0.34 L0.66,-0.34 0.66,0.34 -0.66,0.34  z" class="primitive"/>
      </g>
      <g transform="translate(336.18,117.69)" fill="#AA665A">
        <path d="M-0.66,-0.34 L0.66,-0.34 0.66,0.34 -0.66,0.34  z" class="primitive"/>
      </g>
      <g transform="translate(336.18,117.01)" fill="#A05752">
        <path d="M-0.66,-0.34 L0.66,-0.34 0.66,0.34 -0.66,0.34  z" class="primitive"/>
      </g>
      <g transform="translate(336.18,116.33)" fill="#96484A">
        <path d="M-0.66,-0.34 L0.66,-0.34 0.66,0.34 -0.66,0.34  z" class="primitive"/>
      </g>
      <g transform="translate(336.18,115.64)" fill="#8B3844">
        <path d="M-0.66,-0.34 L0.66,-0.34 0.66,0.34 -0.66,0.34  z" class="primitive"/>
      </g>
      <g transform="translate(336.18,114.96)" fill="#7E273E">
        <path d="M-0.66,-0.34 L0.66,-0.34 0.66,0.34 -0.66,0.34  z" class="primitive"/>
      </g>
      <g stroke="#FFFFFF" stroke-width="0.2" id="img-cae2e095-8">
        <g transform="translate(336.18,128.28)">
          <path fill="none" d="M-0.66,0 L0.66,0 " class="primitive"/>
        </g>
        <g transform="translate(336.18,135.1)">
          <path fill="none" d="M-0.66,0 L0.66,0 " class="primitive"/>
        </g>
        <g transform="translate(336.18,121.45)">
          <path fill="none" d="M-0.66,0 L0.66,0 " class="primitive"/>
        </g>
        <g transform="translate(336.18,114.62)">
          <path fill="none" d="M-0.66,0 L0.66,0 " class="primitive"/>
        </g>
        <g transform="translate(336.18,141.93)">
          <path fill="none" d="M-0.66,0 L0.66,0 " class="primitive"/>
        </g>
      </g>
    </g>
    <g fill="#362A35" font-size="3.88" font-family="'PT Sans','Helvetica Neue','Helvetica',sans-serif" stroke="#000000" stroke-opacity="0.000" id="img-cae2e095-9">
      <g transform="translate(335.53,110.62)">
        <g class="primitive">
          <text dy="-0em">Year</text>
        </g>
      </g>
    </g>
  </g>
  <g clip-path="url(#img-cae2e095-10)">
    <g id="img-cae2e095-11">
      <g pointer-events="visible" stroke-width="0.3" fill="#000000" fill-opacity="0.000" stroke="#000000" stroke-opacity="0.000" class="guide background" id="img-cae2e095-12">
        <g transform="translate(175.74,120.66)" id="img-cae2e095-13">
          <path d="M-157.78,-110.05 L157.78,-110.05 157.78,110.05 -157.78,110.05  z" class="primitive"/>
        </g>
      </g>
      <g class="guide ygridlines xfixed" stroke-dasharray="0.5,0.5" stroke-width="0.2" stroke="#D0D0E0" id="img-cae2e095-14">
        <g transform="translate(175.74,228.72)" id="img-cae2e095-15">
          <path fill="none" d="M-157.78,0 L157.78,0 " class="primitive"/>
        </g>
        <g transform="translate(175.74,174.69)" id="img-cae2e095-16">
          <path fill="none" d="M-157.78,0 L157.78,0 " class="primitive"/>
        </g>
        <g transform="translate(175.74,120.66)" id="img-cae2e095-17">
          <path fill="none" d="M-157.78,0 L157.78,0 " class="primitive"/>
        </g>
        <g transform="translate(175.74,66.64)" id="img-cae2e095-18">
          <path fill="none" d="M-157.78,0 L157.78,0 " class="primitive"/>
        </g>
        <g transform="translate(175.74,12.61)" id="img-cae2e095-19">
          <path fill="none" d="M-157.78,0 L157.78,0 " class="primitive"/>
        </g>
      </g>
      <g class="guide xgridlines yfixed" stroke-dasharray="0.5,0.5" stroke-width="0.2" stroke="#D0D0E0" id="img-cae2e095-20">
        <g transform="translate(19.96,120.66)" id="img-cae2e095-21">
          <path fill="none" d="M0,-110.05 L0,110.05 " class="primitive"/>
        </g>
        <g transform="translate(97.85,120.66)" id="img-cae2e095-22">
          <path fill="none" d="M0,-110.05 L0,110.05 " class="primitive"/>
        </g>
        <g transform="translate(175.74,120.66)" id="img-cae2e095-23">
          <path fill="none" d="M0,-110.05 L0,110.05 " class="primitive"/>
        </g>
        <g transform="translate(253.63,120.66)" id="img-cae2e095-24">
          <path fill="none" d="M0,-110.05 L0,110.05 " class="primitive"/>
        </g>
        <g transform="translate(331.53,120.66)" id="img-cae2e095-25">
          <path fill="none" d="M0,-110.05 L0,110.05 " class="primitive"/>
        </g>
      </g>
      <g class="plotpanel" id="img-cae2e095-26">
        <metadata>
          <boundingbox value="17.95833333333337mm 10.611666666666679mm 315.5683333333333mm 220.10333333333335mm"/>
          <unitbox value="1939.4864689928909 40.370193271737286 81.02706201421839 -40.74038654347457"/>
        </metadata>
        <g shape-rendering="crispEdges" stroke-width="0.3" id="img-cae2e095-27">
          <g stroke="#000000" stroke-opacity="0.000" class="geometry" id="img-cae2e095-28">
            <g transform="translate(164.06,128.77)" id="img-cae2e095-29" fill="#BBCBBB">
              <path d="M-1.45,-99.95 L1.45,-99.95 1.45,99.95 -1.45,99.95  z" class="primitive"/>
            </g>
            <g transform="translate(191.32,136.87)" id="img-cae2e095-30" fill="#C3C9B7">
              <path d="M-1.45,-91.84 L1.45,-91.84 1.45,91.84 -1.45,91.84  z" class="primitive"/>
            </g>
            <g transform="translate(218.58,139.57)" id="img-cae2e095-31" fill="#CBC7B2">
              <path d="M-1.45,-89.14 L1.45,-89.14 1.45,89.14 -1.45,89.14  z" class="primitive"/>
            </g>
            <g transform="translate(136.8,153.08)" id="img-cae2e095-32" fill="#B5CCC2">
              <path d="M-1.45,-75.64 L1.45,-75.64 1.45,75.64 -1.45,75.64  z" class="primitive"/>
            </g>
            <g transform="translate(140.69,153.08)" id="img-cae2e095-33" fill="#B5CCC1">
              <path d="M-1.45,-75.64 L1.45,-75.64 1.45,75.64 -1.45,75.64  z" class="primitive"/>
            </g>
            <g transform="translate(199.11,158.48)" id="img-cae2e095-34" fill="#C5C8B6">
              <path d="M-1.45,-70.23 L1.45,-70.23 1.45,70.23 -1.45,70.23  z" class="primitive"/>
            </g>
            <g transform="translate(156.27,161.18)" id="img-cae2e095-35" fill="#B9CBBD">
              <path d="M-1.45,-67.53 L1.45,-67.53 1.45,67.53 -1.45,67.53  z" class="primitive"/>
            </g>
            <g transform="translate(269.21,163.88)" id="img-cae2e095-36" fill="#C69C80">
              <path d="M-1.45,-64.83 L1.45,-64.83 1.45,64.83 -1.45,64.83  z" class="primitive"/>
            </g>
            <g transform="translate(175.74,166.59)" id="img-cae2e095-37" fill="#BECAB9">
              <path d="M-1.45,-62.13 L1.45,-62.13 1.45,62.13 -1.45,62.13  z" class="primitive"/>
            </g>
            <g transform="translate(132.9,169.29)" id="img-cae2e095-38" fill="#B2CCC2">
              <path d="M-1.45,-59.43 L1.45,-59.43 1.45,59.43 -1.45,59.43  z" class="primitive"/>
            </g>
            <g transform="translate(144.59,169.29)" id="img-cae2e095-39" fill="#B6CBC0">
              <path d="M-1.45,-59.43 L1.45,-59.43 1.45,59.43 -1.45,59.43  z" class="primitive"/>
            </g>
            <g transform="translate(210.79,169.29)" id="img-cae2e095-40" fill="#C8C7B5">
              <path d="M-1.45,-59.43 L1.45,-59.43 1.45,59.43 -1.45,59.43  z" class="primitive"/>
            </g>
            <g transform="translate(245.85,169.29)" id="img-cae2e095-41" fill="#D7C0A3">
              <path d="M-1.45,-59.43 L1.45,-59.43 1.45,59.43 -1.45,59.43  z" class="primitive"/>
            </g>
            <g transform="translate(148.48,171.99)" id="img-cae2e095-42" fill="#B7CBBF">
              <path d="M-1.45,-56.73 L1.45,-56.73 1.45,56.73 -1.45,56.73  z" class="primitive"/>
            </g>
            <g transform="translate(160.16,174.69)" id="img-cae2e095-43" fill="#BACBBC">
              <path d="M-1.45,-54.03 L1.45,-54.03 1.45,54.03 -1.45,54.03  z" class="primitive"/>
            </g>
            <g transform="translate(171.85,174.69)" id="img-cae2e095-44" fill="#BDCABA">
              <path d="M-1.45,-54.03 L1.45,-54.03 1.45,54.03 -1.45,54.03  z" class="primitive"/>
            </g>
            <g transform="translate(195.22,174.69)" id="img-cae2e095-45" fill="#C4C9B6">
              <path d="M-1.45,-54.03 L1.45,-54.03 1.45,54.03 -1.45,54.03  z" class="primitive"/>
            </g>
            <g transform="translate(167.95,177.39)" id="img-cae2e095-46" fill="#BCCABA">
              <path d="M-1.45,-51.32 L1.45,-51.32 1.45,51.32 -1.45,51.32  z" class="primitive"/>
            </g>
            <g transform="translate(203,177.39)" id="img-cae2e095-47" fill="#C6C8B5">
              <path d="M-1.45,-51.32 L1.45,-51.32 1.45,51.32 -1.45,51.32  z" class="primitive"/>
            </g>
            <g transform="translate(183.53,182.79)" id="img-cae2e095-48" fill="#C1C9B8">
              <path d="M-1.45,-45.92 L1.45,-45.92 1.45,45.92 -1.45,45.92  z" class="primitive"/>
            </g>
            <g transform="translate(187.43,182.79)" id="img-cae2e095-49" fill="#C2C9B7">
              <path d="M-1.45,-45.92 L1.45,-45.92 1.45,45.92 -1.45,45.92  z" class="primitive"/>
            </g>
            <g transform="translate(284.79,185.49)" id="img-cae2e095-50" fill="#B9816B">
              <path d="M-1.45,-43.22 L1.45,-43.22 1.45,43.22 -1.45,43.22  z" class="primitive"/>
            </g>
            <g transform="translate(300.37,185.49)" id="img-cae2e095-51" fill="#A96559">
              <path d="M-1.45,-43.22 L1.45,-43.22 1.45,43.22 -1.45,43.22  z" class="primitive"/>
            </g>
            <g transform="translate(125.11,188.2)" id="img-cae2e095-52" fill="#ACCEC4">
              <path d="M-1.45,-40.52 L1.45,-40.52 1.45,40.52 -1.45,40.52  z" class="primitive"/>
            </g>
            <g transform="translate(206.9,188.2)" id="img-cae2e095-53" fill="#C7C8B5">
              <path d="M-1.45,-40.52 L1.45,-40.52 1.45,40.52 -1.45,40.52  z" class="primitive"/>
            </g>
            <g transform="translate(222.48,188.2)" id="img-cae2e095-54" fill="#CDC6B0">
              <path d="M-1.45,-40.52 L1.45,-40.52 1.45,40.52 -1.45,40.52  z" class="primitive"/>
            </g>
            <g transform="translate(226.37,188.2)" id="img-cae2e095-55" fill="#CFC6AE">
              <path d="M-1.45,-40.52 L1.45,-40.52 1.45,40.52 -1.45,40.52  z" class="primitive"/>
            </g>
            <g transform="translate(234.16,188.2)" id="img-cae2e095-56" fill="#D3C5AB">
              <path d="M-1.45,-40.52 L1.45,-40.52 1.45,40.52 -1.45,40.52  z" class="primitive"/>
            </g>
            <g transform="translate(288.69,190.9)" id="img-cae2e095-57" fill="#B57A66">
              <path d="M-1.45,-37.82 L1.45,-37.82 1.45,37.82 -1.45,37.82  z" class="primitive"/>
            </g>
            <g transform="translate(152.37,193.6)" id="img-cae2e095-58" fill="#B8CBBE">
              <path d="M-1.45,-35.12 L1.45,-35.12 1.45,35.12 -1.45,35.12  z" class="primitive"/>
            </g>
            <g transform="translate(230.27,193.6)" id="img-cae2e095-59" fill="#D1C6AC">
              <path d="M-1.45,-35.12 L1.45,-35.12 1.45,35.12 -1.45,35.12  z" class="primitive"/>
            </g>
            <g transform="translate(277,193.6)" id="img-cae2e095-60" fill="#C08E75">
              <path d="M-1.45,-35.12 L1.45,-35.12 1.45,35.12 -1.45,35.12  z" class="primitive"/>
            </g>
            <g transform="translate(214.69,196.3)" id="img-cae2e095-61" fill="#CAC7B4">
              <path d="M-1.45,-32.42 L1.45,-32.42 1.45,32.42 -1.45,32.42  z" class="primitive"/>
            </g>
            <g transform="translate(319.84,196.3)" id="img-cae2e095-62" fill="#903F47">
              <path d="M-1.45,-32.42 L1.45,-32.42 1.45,32.42 -1.45,32.42  z" class="primitive"/>
            </g>
            <g transform="translate(179.64,199)" id="img-cae2e095-63" fill="#BFCAB8">
              <path d="M-1.45,-29.71 L1.45,-29.71 1.45,29.71 -1.45,29.71  z" class="primitive"/>
            </g>
            <g transform="translate(241.95,199)" id="img-cae2e095-64" fill="#D7C4A7">
              <path d="M-1.45,-29.71 L1.45,-29.71 1.45,29.71 -1.45,29.71  z" class="primitive"/>
            </g>
            <g transform="translate(249.74,199)" id="img-cae2e095-65" fill="#D4BA9D">
              <path d="M-1.45,-29.71 L1.45,-29.71 1.45,29.71 -1.45,29.71  z" class="primitive"/>
            </g>
            <g transform="translate(253.63,201.7)" id="img-cae2e095-66" fill="#D2B497">
              <path d="M-1.45,-27.01 L1.45,-27.01 1.45,27.01 -1.45,27.01  z" class="primitive"/>
            </g>
            <g transform="translate(273.11,201.7)" id="img-cae2e095-67" fill="#C3957A">
              <path d="M-1.45,-27.01 L1.45,-27.01 1.45,27.01 -1.45,27.01  z" class="primitive"/>
            </g>
            <g transform="translate(129.01,204.4)" id="img-cae2e095-68" fill="#AFCDC3">
              <path d="M-1.45,-24.31 L1.45,-24.31 1.45,24.31 -1.45,24.31  z" class="primitive"/>
            </g>
            <g transform="translate(280.9,204.4)" id="img-cae2e095-69" fill="#BD8870">
              <path d="M-1.45,-24.31 L1.45,-24.31 1.45,24.31 -1.45,24.31  z" class="primitive"/>
            </g>
            <g transform="translate(315.95,204.4)" id="img-cae2e095-70" fill="#95474A">
              <path d="M-1.45,-24.31 L1.45,-24.31 1.45,24.31 -1.45,24.31  z" class="primitive"/>
            </g>
            <g transform="translate(238.06,207.1)" id="img-cae2e095-71" fill="#D5C4A9">
              <path d="M-1.45,-21.61 L1.45,-21.61 1.45,21.61 -1.45,21.61  z" class="primitive"/>
            </g>
            <g transform="translate(261.42,207.1)" id="img-cae2e095-72" fill="#CCA88B">
              <path d="M-1.45,-21.61 L1.45,-21.61 1.45,21.61 -1.45,21.61  z" class="primitive"/>
            </g>
            <g transform="translate(292.58,207.1)" id="img-cae2e095-73" fill="#B17361">
              <path d="M-1.45,-21.61 L1.45,-21.61 1.45,21.61 -1.45,21.61  z" class="primitive"/>
            </g>
            <g transform="translate(312.05,207.1)" id="img-cae2e095-74" fill="#9B4E4D">
              <path d="M-1.45,-21.61 L1.45,-21.61 1.45,21.61 -1.45,21.61  z" class="primitive"/>
            </g>
            <g transform="translate(117.32,209.81)" id="img-cae2e095-75" fill="#A6CFC7">
              <path d="M-1.45,-18.91 L1.45,-18.91 1.45,18.91 -1.45,18.91  z" class="primitive"/>
            </g>
            <g transform="translate(121.22,209.81)" id="img-cae2e095-76" fill="#A9CEC5">
              <path d="M-1.45,-18.91 L1.45,-18.91 1.45,18.91 -1.45,18.91  z" class="primitive"/>
            </g>
            <g transform="translate(257.53,209.81)" id="img-cae2e095-77" fill="#CFAE91">
              <path d="M-1.45,-18.91 L1.45,-18.91 1.45,18.91 -1.45,18.91  z" class="primitive"/>
            </g>
            <g transform="translate(296.48,209.81)" id="img-cae2e095-78" fill="#AD6C5D">
              <path d="M-1.45,-18.91 L1.45,-18.91 1.45,18.91 -1.45,18.91  z" class="primitive"/>
            </g>
            <g transform="translate(323.74,209.81)" id="img-cae2e095-79" fill="#8A3743">
              <path d="M-1.45,-18.91 L1.45,-18.91 1.45,18.91 -1.45,18.91  z" class="primitive"/>
            </g>
            <g transform="translate(327.63,209.81)" id="img-cae2e095-80" fill="#842F40">
              <path d="M-1.45,-18.91 L1.45,-18.91 1.45,18.91 -1.45,18.91  z" class="primitive"/>
            </g>
            <g transform="translate(265.32,215.21)" id="img-cae2e095-81" fill="#C9A285">
              <path d="M-1.45,-13.51 L1.45,-13.51 1.45,13.51 -1.45,13.51  z" class="primitive"/>
            </g>
            <g transform="translate(304.26,215.21)" id="img-cae2e095-82" fill="#A45D55">
              <path d="M-1.45,-13.51 L1.45,-13.51 1.45,13.51 -1.45,13.51  z" class="primitive"/>
            </g>
            <g transform="translate(113.43,217.91)" id="img-cae2e095-83" fill="#A3CFC8">
              <path d="M-1.45,-10.81 L1.45,-10.81 1.45,10.81 -1.45,10.81  z" class="primitive"/>
            </g>
            <g transform="translate(308.16,220.61)" id="img-cae2e095-84" fill="#9F5651">
              <path d="M-1.45,-8.1 L1.45,-8.1 1.45,8.1 -1.45,8.1  z" class="primitive"/>
            </g>
            <g transform="translate(109.53,223.31)" id="img-cae2e095-85" fill="#9FD0CA">
              <path d="M-1.45,-5.4 L1.45,-5.4 1.45,5.4 -1.45,5.4  z" class="primitive"/>
            </g>
            <g transform="translate(93.96,226.01)" id="img-cae2e095-86" fill="#80BFC1">
              <path d="M-1.45,-2.7 L1.45,-2.7 1.45,2.7 -1.45,2.7  z" class="primitive"/>
            </g>
          </g>
        </g>
      </g>
    </g>
  </g>
  <g class="guide ylabels" font-size="2.82" font-family="'PT Sans Caption','Helvetica Neue','Helvetica',sans-serif" fill="#6C606B" id="img-cae2e095-87">
    <g transform="translate(16.96,228.72)" id="img-cae2e095-88">
      <g class="primitive">
        <text text-anchor="end" dy="0.35em">0</text>
      </g>
    </g>
    <g transform="translate(16.96,174.69)" id="img-cae2e095-89">
      <g class="primitive">
        <text text-anchor="end" dy="0.35em">10</text>
      </g>
    </g>
    <g transform="translate(16.96,120.66)" id="img-cae2e095-90">
      <g class="primitive">
        <text text-anchor="end" dy="0.35em">20</text>
      </g>
    </g>
    <g transform="translate(16.96,66.64)" id="img-cae2e095-91">
      <g class="primitive">
        <text text-anchor="end" dy="0.35em">30</text>
      </g>
    </g>
    <g transform="translate(16.96,12.61)" id="img-cae2e095-92">
      <g class="primitive">
        <text text-anchor="end" dy="0.35em">40</text>
      </g>
    </g>
  </g>
  <g font-size="3.88" font-family="'PT Sans','Helvetica Neue','Helvetica',sans-serif" fill="#564A55" stroke="#000000" stroke-opacity="0.000" id="img-cae2e095-93">
    <g transform="translate(8.81,118.66)" id="img-cae2e095-94">
      <g class="primitive">
        <text text-anchor="middle" dy="0.35em" transform="rotate(-90,0, 2)">Amount of Records</text>
      </g>
    </g>
  </g>
  <g font-size="3.88" font-family="'PT Sans','Helvetica Neue','Helvetica',sans-serif" fill="#564A55" stroke="#000000" stroke-opacity="0.000" id="img-cae2e095-95">
    <g transform="translate(175.74,5)" id="img-cae2e095-96">
      <g class="primitive">
        <text text-anchor="middle" dy="0.6em">Amount of Records per Year</text>
      </g>
    </g>
  </g>
</g>
<defs>
  <clipPath id="img-cae2e095-10">
    <path d="M17.96,10.61 L333.53,10.61 333.53,230.72 17.96,230.72 " />
  </clipPath>
</defs>
</svg>
